# xmcd CD database file
#
# Track frame offsets:
#	150
#	14513
#	28781
#	42317
#	54178
#	67807
#	82383
#	96062
#	109621
#	121566
#	135563
#	149328
#	163633
#	178143
#	191073
#	204261
#	217983
#	230946
#
# Disc length: 3253 seconds
#
# Revision: 0
# Processed by: cddbd v1.5.2PL0 Copyright (c) Steve Scherf et al.
# Submitted via: CDex 1.70beta2
#
DISCID=fb0cb312
DTITLE=Nat King Cole -  It's Only a Paper Moon CD 2
DYEAR=2004
DGENRE=Jazz
TTITLE0=I'm In the Mood For Love
TTITLE1=I Don't Know Why
TTITLE2=Route 66
TTITLE3=Everyone Is Sayin' Hello Again
TTITLE4=What Can I Say After I Say I'm Sorry
TTITLE5=To a Wild Rose
TTITLE6=Could-'Ja
TTITLE7=Baby, Baby All the Time
TTITLE8=Oh, But I Do
TTITLE9=But She's My Buddy's Chick
TTITLE10=You Call It Madness
TTITLE11=Chant Of the Blues
TTITLE12=The Christmas Song
TTITLE13=You Should Have Told Me
TTITLE14=Gee Baby, Ain't I Good To You
TTITLE15=Look What You've Done To Me
TTITLE16=I Tho't You Ought To Know
TTITLE17=It Only Happens Once
EXTD=YEAR: 2004
EXTT0=
EXTT1=
EXTT2=
EXTT3=
EXTT4=
EXTT5=
EXTT6=
EXTT7=
EXTT8=
EXTT9=
EXTT10=
EXTT11=
EXTT12=
EXTT13=
EXTT14=
EXTT15=
EXTT16=
EXTT17=
PLAYORDER=
